<svg width="44" height="44" viewBox="0 0 44 44" fill="none" xmlns="http://www.w3.org/2000/svg">
<g clip-path="url(#clip0_47_41)">
<path d="M0.00549316 8.25C0.00549316 6.79131 0.584956 5.39236 1.61641 4.36091C2.64786 3.32946 4.0468 2.75 5.50549 2.75H38.5055C39.9642 2.75 41.3631 3.32946 42.3946 4.36091C43.426 5.39236 44.0055 6.79131 44.0055 8.25V35.75C44.0055 37.2087 43.426 38.6076 42.3946 39.6391C41.3631 40.6705 39.9642 41.25 38.5055 41.25H5.50549C4.0468 41.25 2.64786 40.6705 1.61641 39.6391C0.584956 38.6076 0.00549316 37.2087 0.00549316 35.75V8.25ZM2.75549 33V35.75C2.75549 36.4793 3.04522 37.1788 3.56095 37.6945C4.07667 38.2103 4.77615 38.5 5.50549 38.5H38.5055C39.2348 38.5 39.9343 38.2103 40.45 37.6945C40.9658 37.1788 41.2555 36.4793 41.2555 35.75V26.125L30.8687 20.7707C30.6109 20.6416 30.3189 20.5968 30.0341 20.6426C29.7494 20.6885 29.4862 20.8228 29.282 21.0265L19.0795 31.229L11.7645 26.356C11.5004 26.1802 11.1836 26.1011 10.8678 26.1322C10.5521 26.1632 10.2568 26.3026 10.032 26.5265L2.75549 33ZM16.5055 15.125C16.5055 14.031 16.0709 12.9818 15.2973 12.2082C14.5237 11.4346 13.4745 11 12.3805 11C11.2865 11 10.2373 11.4346 9.46368 12.2082C8.69009 12.9818 8.25549 14.031 8.25549 15.125C8.25549 16.219 8.69009 17.2682 9.46368 18.0418C10.2373 18.8154 11.2865 19.25 12.3805 19.25C13.4745 19.25 14.5237 18.8154 15.2973 18.0418C16.0709 17.2682 16.5055 16.219 16.5055 15.125Z" fill="#F8F8F8"/>
</g>
<defs>
<clipPath id="clip0_47_41">
<rect width="44" height="44" fill="white"/>
</clipPath>
</defs>
</svg>
