<svg width="55" height="55" viewBox="0 0 55 55" fill="none" xmlns="http://www.w3.org/2000/svg">
<path d="M36.6666 25.2083C40.4708 25.2083 43.5187 22.1375 43.5187 18.3333C43.5187 14.5291 40.4708 11.4583 36.6666 11.4583C32.8625 11.4583 29.7916 14.5291 29.7916 18.3333C29.7916 22.1375 32.8625 25.2083 36.6666 25.2083ZM18.3333 25.2083C22.1375 25.2083 25.1854 22.1375 25.1854 18.3333C25.1854 14.5291 22.1375 11.4583 18.3333 11.4583C14.5291 11.4583 11.4583 14.5291 11.4583 18.3333C11.4583 22.1375 14.5291 25.2083 18.3333 25.2083ZM18.3333 29.7916C12.9937 29.7916 2.29163 32.4729 2.29163 37.8125V41.25C2.29163 42.5104 3.32288 43.5416 4.58329 43.5416H32.0833C33.3437 43.5416 34.375 42.5104 34.375 41.25V37.8125C34.375 32.4729 23.6729 29.7916 18.3333 29.7916ZM36.6666 29.7916C36.002 29.7916 35.2458 29.8375 34.4437 29.9062C34.4895 29.9291 34.5125 29.975 34.5354 29.9979C37.1479 31.9 38.9583 34.4437 38.9583 37.8125V41.25C38.9583 42.0521 38.7979 42.8312 38.5458 43.5416H50.4166C51.677 43.5416 52.7083 42.5104 52.7083 41.25V37.8125C52.7083 32.4729 42.0062 29.7916 36.6666 29.7916Z" fill="#F8F8F8"/>
</svg>
